<?xml version="1.0" encoding="utf-8"?>
<!-- Uploaded to: SVG Repo, www.svgrepo.com, Generator: SVG Repo Mixer Tools -->
<svg fill="#000000" version="1.1" id="Layer_1" xmlns="http://www.w3.org/2000/svg" xmlns:xlink="http://www.w3.org/1999/xlink" 
	 width="800px" height="800px" viewBox="0 0 256 256" enable-background="new 0 0 256 256" xml:space="preserve">
<path d="M98.6,32.6c24,0,43.4,19.4,43.4,43.4s-19.4,43.6-43.4,43.6s-43.4-19.4-43.4-43.4S74.6,32.6,98.6,32.6z M221.8,215.6h-54.4
	l25.4-43.8c5.2-9.2,2-20.8-7-26s-20.6-2-25.8,7l-25.4,43.8l-37.8-64.8C93.2,125,86,121.6,77,121.6c-1.2,0-3.8,0.4-5.2,0.8
	c-1.2,0.2-3,0.8-4.4,1.2C31,135.6,2.2,193.8,2.2,254c1,0,87.4,0,109.4,0c-0.8-1.2-1.6-2.2-2.4-3.4L65.4,175c-1.4-2.6-0.4-6,2-7.4
	c2.6-1.4,6-0.4,7.4,2l43.4,75c3.2,5.6,9.2,9.4,16.2,9.4h87.4c10.6,0,19-8.6,19-19C241,224,232.2,215.6,221.8,215.6z M203.613,29.883
	v-6.156l-6.453-1.09c-0.477-2.109-1.309-4.086-2.43-5.863l3.793-5.332l-4.355-4.355l-5.332,3.793
	c-1.773-1.121-3.75-1.949-5.863-2.43L181.887,2h-6.16l-1.086,6.449c-2.113,0.48-4.09,1.309-5.863,2.43l-5.332-3.793l-4.355,4.355
	l3.793,5.332c-1.121,1.777-1.953,3.754-2.43,5.863L154,23.727v6.156l6.453,1.086c0.477,2.113,1.309,4.09,2.43,5.867l-3.793,5.332
	l4.355,4.352l5.332-3.793c1.773,1.121,3.75,1.953,5.863,2.43l1.086,6.453h6.16l1.086-6.453c2.113-0.477,4.09-1.309,5.863-2.43
	l5.332,3.793l4.355-4.352l-3.793-5.332c1.121-1.777,1.953-3.754,2.43-5.867L203.613,29.883z M178.805,36.594
	c-5.402,0-9.785-4.383-9.785-9.789s4.383-9.789,9.785-9.789c5.406,0,9.789,4.383,9.789,9.789S184.211,36.594,178.805,36.594z
	 M246.48,65.19l7.52-4.667l-3.154-7.707l-8.635,1.943c-1.629-2.327-3.659-4.397-6.043-6.096l2.017-8.616l-7.68-3.22l-4.73,7.479
	c-2.883-0.509-5.782-0.505-8.584-0.035l-4.668-7.52l-7.707,3.154l1.943,8.635c-2.327,1.629-4.397,3.659-6.096,6.043l-8.616-2.017
	l-3.22,7.68l7.479,4.73c-0.509,2.883-0.505,5.782-0.035,8.584l-7.52,4.668l3.154,7.707l8.635-1.943
	c1.629,2.327,3.659,4.397,6.043,6.096l-2.017,8.616l7.68,3.22l4.73-7.479c2.883,0.509,5.782,0.505,8.584,0.035l4.668,7.52
	l7.707-3.154l-1.943-8.635c2.327-1.629,4.397-3.659,6.096-6.043l8.616,2.017l3.22-7.68l-7.479-4.73
	C246.953,70.891,246.95,67.992,246.48,65.19z M233.584,74.493c-2.827,6.743-10.584,9.918-17.327,7.091
	c-6.743-2.827-9.918-10.584-7.091-17.327s10.584-9.918,17.327-7.091C233.236,59.993,236.41,67.75,233.584,74.493z"/>
</svg>